<svg width="250" height="250" viewBox="0 0 250 250" fill="none" xmlns="http://www.w3.org/2000/svg">
<circle r="24.5902" transform="matrix(-1 0 0 1 24.5904 49.5902)" fill="black"/>
<path d="M20.4918 45.9017L66.3936 91.8035" stroke="black" stroke-width="12.972"/>
<circle cx="225.409" cy="49.5902" r="24.5902" fill="black"/>
<path d="M229.916 45.9017L184.015 91.8035" stroke="black" stroke-width="12.972"/>
<path fill-rule="evenodd" clip-rule="evenodd" d="M32.7489 196.885C18.7267 190.312 10.5691 175.338 13.4199 160.116C24.9139 98.7422 70.8721 52.8689 125.818 52.8689C180.897 52.8689 226.945 98.9663 238.299 160.565C241.109 175.815 232.885 190.782 218.815 197.301C190.663 210.344 159.296 217.624 126.228 217.624C92.8111 217.624 61.1301 210.189 32.7489 196.885Z" fill="#FFDF6F"/>
<path d="M238.299 160.565L231.92 161.741L238.299 160.565ZM218.815 197.301L216.089 191.416L218.815 197.301ZM32.7489 196.885L35.502 191.012L32.7489 196.885ZM19.7951 161.31C30.8782 102.13 74.8056 59.3549 125.818 59.3549V46.3829C66.9386 46.3829 18.9496 95.3542 7.04471 158.922L19.7951 161.31ZM125.818 59.3549C176.953 59.3549 220.972 102.341 231.92 161.741L244.677 159.39C232.919 95.592 184.841 46.3829 125.818 46.3829V59.3549ZM216.089 191.416C188.774 204.071 158.335 211.137 126.228 211.137V224.11C160.257 224.11 192.553 216.617 221.542 203.186L216.089 191.416ZM126.228 211.137C93.7822 211.137 63.0394 203.921 35.502 191.012L29.9959 202.758C59.2207 216.458 91.8399 224.11 126.228 224.11V211.137ZM231.92 161.741C234.166 173.924 227.619 186.073 216.089 191.416L221.542 203.186C238.151 195.49 248.053 177.707 244.677 159.39L231.92 161.741ZM7.04471 158.922C3.62054 177.206 13.4434 194.998 29.9959 202.758L35.502 191.012C24.01 185.625 17.5177 173.47 19.7951 161.31L7.04471 158.922Z" fill="black"/>
<path fill-rule="evenodd" clip-rule="evenodd" d="M56.1862 181.302C44.9051 176.781 38.208 164.775 42.2581 153.317C53.9692 120.184 86.956 96.3117 125.819 96.3117C164.682 96.3117 197.668 120.183 209.38 153.315C213.43 164.774 206.733 176.78 195.452 181.301C173.926 189.927 150.426 194.673 125.818 194.673C101.211 194.673 77.7116 189.927 56.1862 181.302Z" fill="black"/>
<ellipse cx="154.099" cy="148.771" rx="20.4919" ry="16.3935" fill="white"/>
<ellipse cx="95.4352" cy="148.781" rx="20.4919" ry="16.3935" fill="white"/>
</svg>